HIERARCHY
ROOT HipCenter
{
    OFFSET 0.0 0.0 -0.0
    CHANNELS 6 Xposition Yposition Zposition Zrotation Xrotation Yrotation
    JOINT Spine
    {
        OFFSET 0.0 0.11779526621103287 0.0
        CHANNELS 3 Zrotation Xrotation Yrotation
        JOINT ShoulderCenter
        {
            OFFSET 0.0 0.31349286437034607 0.0
            CHANNELS 3 Zrotation Xrotation Yrotation
            JOINT LeftShoulder
            {
                OFFSET 0.16889092326164246 0.0 0.0
                CHANNELS 3 Zrotation Xrotation Yrotation
                JOINT LeftElbow
                {
                    OFFSET 0.24578014016151428 0.0 0.0
                    CHANNELS 3 Zrotation Xrotation Yrotation
                    JOINT LeftWrist
                    {
                        OFFSET 0.2672896087169647 0.0 0.0
                        CHANNELS 3 Zrotation Xrotation Yrotation
                        JOINT LeftHand
                        {
                            OFFSET 0.03281053900718689 0.0 0.0
                            CHANNELS 3 Zrotation Xrotation Yrotation
                            End Site
                            {
                                OFFSET 0.013124216347932816 0.0 0.0
                            }
                        }
                    }
                }
            }
            JOINT RightShoulder
            {
                OFFSET -0.16889092326164246 0.0 0.0
                CHANNELS 3 Zrotation Xrotation Yrotation
                JOINT RightElbow
                {
                    OFFSET -0.24578014016151428 0.0 0.0
                    CHANNELS 3 Zrotation Xrotation Yrotation
                    JOINT RightWrist
                    {
                        OFFSET -0.2672896087169647 0.0 0.0
                        CHANNELS 3 Zrotation Xrotation Yrotation
                        JOINT RightHand
                        {
                            OFFSET -0.03281053900718689 0.0 0.0
                            CHANNELS 3 Zrotation Xrotation Yrotation
                            End Site
                            {
                                OFFSET -0.013124216347932816 0.0 0.0
                            }
                        }
                    }
                }
            }
            End Site
            {
                OFFSET 0.0 0.12539716064929962 0.0
            }
        }
    }
    JOINT LeftHip
    {
        OFFSET 0.1234336793422699 0.0 0.0
        CHANNELS 3 Zrotation Xrotation Yrotation
        JOINT LeftKnee
        {
            OFFSET 0.0 -0.3666197657585144 0.0
            CHANNELS 3 Zrotation Xrotation Yrotation
            JOINT LeftAnkle
            {
                OFFSET 0.0 -0.38123175501823425 0.0
                CHANNELS 3 Zrotation Xrotation Yrotation
                JOINT LeftFoot
                {
                    OFFSET 0.0 -0.11605203151702881 0.0
                    CHANNELS 3 Zrotation Xrotation Yrotation
                    End Site
                    {
                        OFFSET 0.0 0.0 0.04642081633210182
                    }
                }
            }
        }
    }
    JOINT RightHip
    {
        OFFSET -0.1234336793422699 0.0 0.0
        CHANNELS 3 Zrotation Xrotation Yrotation
        JOINT RightKnee
        {
            OFFSET 0.0 -0.3666197657585144 0.0
            CHANNELS 3 Zrotation Xrotation Yrotation
            JOINT RightAnkle
            {
                OFFSET 0.0 -0.38123175501823425 0.0
                CHANNELS 3 Zrotation Xrotation Yrotation
                JOINT RightFoot
                {
                    OFFSET 0.0 -0.11605203151702881 0.0
                    CHANNELS 3 Zrotation Xrotation Yrotation
                    End Site
                    {
                        OFFSET 0.0 0.0 0.04642081633210182
                    }
                }
            }
        }
    }
}
MOTION
Frames: 5
Frame Time: 0.03333333333333333
0.6909999847412109 -0.08699999749660492 -0.17800000309944153 -172.6319560743752 -1.4692251829341871 125.63215599480921 -2.8440437206491977 -22.316812374226352 -2.1276023583339763 2.0314916480078754e-06 -2.00039129072095e-07 -6.948833464370219 120.7725457907121 59.23382621949808 -75.09949328287635 1.1457512361593136e-06 -1.7773114900785143e-06 51.950418987150904 -179.99997245977318 -85.9672448335978 -86.56677923703528 9.103681739728452e-32 -6.559894030518502e-15 1.5902773407317582e-15 -154.6657484483705 60.785365399584414 128.44986470781112 1.5856886583795307e-06 2.132305407659498e-06 -49.53591621235922 -1.7462893184741734e-05 -84.66236470303605 -98.59455070528197 -3.1805546814635168e-15 4.4139062980501586e-32 -1.5902773407317584e-15 15.0602671717981 1.8276315689739835 -41.77083354213823 -43.265869450419885 21.7573147249759 -4.07559865198245 58.78150551070578 -27.17807210059067 49.777869975998854 -1.7655625192200634e-31 -3.1805546814635164e-15 -6.361109362927033e-15 -7.955561175440108 2.1498105134518855 42.7916970459475 62.255621949371054 34.27589997000657 -4.850084304841391 -62.17389841528833 -4.6318836094381455 -6.603550395569747 7.951386703658791e-16 0.0 0.0
0.6919999718666077 -0.0729999989271164 -0.2150000035762787 -172.69421901696683 1.4568841727222421 121.38242226202564 -2.898977073952376 -21.75442033927042 -2.0362777330014348 2.0704645884545474e-08 9.16741224125601e-07 -4.112275560146454 115.41902441348064 56.22796837361426 -69.36768961022598 5.260375977423398e-07 1.9693640497132865e-06 49.9855369684381 -0.0007752571975153129 -89.82377286795158 94.1329535559544 1.5902773407317588e-15 6.361109362927035e-15 -8.827812596100317e-32 -162.32089498906024 58.870006583433714 133.9807216507007 2.3216208725819238e-07 -9.748738595021515e-07 -47.33733084435708 179.99995481483435 -89.64388989439328 85.46731038357052 3.1805546814635168e-15 0.0 0.0 14.156284872981795 0.11304229335967764 -38.45748257624132 -40.52893835815832 23.784754234987062 -6.081532425535425 59.604141906357945 -28.331383669375032 57.405698971874514 3.1805546814635168e-15 -2.782985346280577e-15 7.724336021587778e-32 -6.814235166087456 3.1817852923182186 40.94996381451879 56.25661363516232 33.43927511710611 -2.1949294265869934 -60.72543536677434 -9.246253524633081 -14.106570281488924 5.963540027744094e-16 0.0 0.0
0.6909999847412109 -0.06199999898672104 -0.24899999797344208 -172.63195614663132 3.912712136180877 117.60490207472233 -3.100024257357235 -21.52412489881658 -1.8558015474089247 -2.7766986851283317e-06 1.760444824678748e-06 -3.8631261554626373 113.77215542713013 55.7855708251479 -66.63188475787733 -1.4525678570415328e-06 -3.759085094152602e-06 47.54324926089894 -1.652536751063e-05 -86.88521902115608 95.56096862545775 0.0 0.0 -1.5902773407317584e-15 -171.14573548610556 54.37043049559167 142.1801449896622 -3.976788121076013e-06 -1.0860558435571055e-06 -49.768011384535576 -1.965017732959715e-07 -13.31908550263972 -87.07804661275719 -3.1805546814635168e-15 0.0 0.0 13.72003903357656 -1.9481504973717725 -35.42493349399328 -38.11156227417009 26.367559186343165 -8.789675863608062 62.93400710153142 -27.947767244869084 69.51099852689447 0.0 0.0 6.361109362927033e-15 -5.1470478948424185 4.746555097906706 39.836066333607654 50.57540348349914 32.45715571424586 -0.23614626827097057 -59.78278644351122 -13.314936091995653 -21.285903771200566 -3.975693351829395e-16 0.0 0.0
0.6890000104904175 -0.05400000140070915 -0.2809999883174896 -172.1466994123641 5.85113207161053 112.83465420175797 -2.3188018049727495 -21.4675755932347 -1.593934813756584 4.105586556258507e-07 -9.25159112823163e-07 -2.0607645212541246 111.90193279883775 54.41725574955084 -63.86089137268821 -1.5352781987895432e-06 3.1981886793693393e-07 44.94392993379446 8.223344308707835e-07 -83.44363027108623 95.85931184983257 -1.5902773407317588e-15 6.559894030518505e-15 9.103681739728452e-32 -171.36982158607694 52.554747604323545 143.5626126641082 1.7881474309961577e-06 3.311026800483027e-06 -52.28780800836875 -9.876954645431956e-07 -14.603722335305044 -82.76837887208292 6.361109362927035e-15 0.0 0.0 13.576032683645026 -3.516689387591671 -32.70201617434774 -34.79335816598457 28.892050792224758 -11.687600033377993 65.07840351201614 -30.223219867874427 80.59886953319543 3.1805546814635168e-15 0.0 0.0 -3.3614601134800064 6.683923190831203 40.18206865115136 45.99464489907324 31.540754044210416 0.9664207912507233 -59.10416257294188 -16.144207742827213 -26.337663243977925 -4.969616689786744e-16 -7.951386703658791e-16 -3.4483642953516864e-33
0.6859999895095825 -0.04800000041723251 -0.31200000643730164 -171.66254668466584 7.771333541750085 108.75517121537324 -2.3073027189651936 -21.72569890161215 -1.4842149889802703 2.9986577000612676e-06 -3.2815790260388564e-06 -0.4819969608058516 109.81506409968407 51.76561902357372 -61.1608921907147 -2.939257571017073e-06 -4.103214402388488e-06 42.916756781949026 -2.711636948425651e-06 -77.63780528908299 96.88417149072029 0.0 0.0 -7.951386703658792e-16 -169.0063481408945 51.415794691348424 144.06098915893475 -7.853546563980739e-07 5.087860588010702e-06 -56.71956293452098 -3.364075419484661e-07 -17.459444201376048 -80.60938125217798 0.0 0.0 3.1805546814635176e-15 13.418484009595947 -5.361468635438479 -29.790830969248326 -30.975669659743144 31.75548001630669 -15.703472702563339 65.75356202978479 -30.7186004706362 88.7720595683107 -3.1805546814635168e-15 1.5902773407317584e-15 4.4139062980501586e-32 -2.4061171136343185 9.115705955930858 40.73833761553045 42.73542198494563 29.663734417247724 1.295882582948618 -60.670217168482 -15.690058779168536 -27.900222032654614 1.298312360206787e-15 7.951386703658792e-16 -9.00885172160628e-33
